<svg xmlns="http://www.w3.org/2000/svg" xmlns:xlink="http://www.w3.org/1999/xlink" width="573.796" height="242.696" viewBox="0 0 573.796 242.696">
  <defs>
    <linearGradient id="linear-gradient" y1="0.5" x2="1" y2="0.5" gradientUnits="objectBoundingBox">
      <stop offset="0" stop-color="#e6e7e8"/>
      <stop offset="1" stop-color="#939598"/>
    </linearGradient>
    <linearGradient id="linear-gradient-3" y1="0.5" x2="1" y2="0.5" gradientUnits="objectBoundingBox">
      <stop offset="0" stop-color="#d1d3d4"/>
      <stop offset="1" stop-color="#6d6e71"/>
    </linearGradient>
    <linearGradient id="linear-gradient-7" y1="0.5" x2="1" y2="0.5" gradientUnits="objectBoundingBox">
      <stop offset="0" stop-color="#f1f2f2"/>
      <stop offset="1" stop-color="#d1d3d4"/>
    </linearGradient>
    <linearGradient id="linear-gradient-8" x1="0.286" y1="0.5" x2="1.64" y2="0.453" gradientUnits="objectBoundingBox">
      <stop offset="0" stop-color="#fff"/>
      <stop offset="0.076" stop-color="#f4f5f5"/>
      <stop offset="0.503" stop-color="#c0c1c3"/>
      <stop offset="0.824" stop-color="#9fa1a3"/>
      <stop offset="1" stop-color="#939598"/>
    </linearGradient>
    <linearGradient id="linear-gradient-12" y1="0.5" x2="1" y2="0.5" gradientUnits="objectBoundingBox">
      <stop offset="0" stop-color="#a7a9ac"/>
      <stop offset="1" stop-color="#a7a9ac"/>
    </linearGradient>
    <linearGradient id="linear-gradient-14" x1="1.041" y1="-2.718" x2="0.169" y2="2.464" xlink:href="#linear-gradient"/>
    <linearGradient id="linear-gradient-15" x1="1.08" y1="-0.035" x2="-0.178" y2="1.171" gradientUnits="objectBoundingBox">
      <stop offset="0" stop-color="#e6e7e8"/>
      <stop offset="0.035" stop-color="#dedfe0"/>
      <stop offset="0.176" stop-color="#c2c4c6"/>
      <stop offset="0.329" stop-color="#adafb1"/>
      <stop offset="0.499" stop-color="#9ea0a3"/>
      <stop offset="0.699" stop-color="#95979a"/>
      <stop offset="1" stop-color="#939598"/>
    </linearGradient>
    <linearGradient id="linear-gradient-16" x1="0.829" y1="1.089" x2="0.175" y2="-0.082" gradientUnits="objectBoundingBox">
      <stop offset="0" stop-color="#a7a9ac"/>
      <stop offset="1" stop-color="#6d6e71"/>
    </linearGradient>
    <radialGradient id="radial-gradient" cx="0.902" cy="-0.043" r="1.256" gradientTransform="translate(-0.551) scale(2.103 1)" xlink:href="#linear-gradient"/>
    <radialGradient id="radial-gradient-2" cx="0.662" cy="0.128" r="1.357" gradientTransform="translate(-0.969) scale(2.938 1)" xlink:href="#linear-gradient"/>
    <radialGradient id="radial-gradient-3" cx="0.977" cy="-1.275" r="14.788" gradientTransform="translate(0.484) scale(0.032 1)" gradientUnits="objectBoundingBox">
      <stop offset="0" stop-color="#e6e7e8"/>
      <stop offset="0.113" stop-color="#dddedf"/>
      <stop offset="1" stop-color="#939598"/>
    </radialGradient>
  </defs>
  <g id="OBJECTS" transform="translate(-89.592 -214.062)">
    <g id="Сгруппировать_27" data-name="Сгруппировать 27" transform="translate(29.469 93.296)">
      <g id="Сгруппировать_26" data-name="Сгруппировать 26" transform="translate(60.122 120.9)">
        <g id="Сгруппировать_10" data-name="Сгруппировать 10" transform="translate(0 1.244)">
          <g id="Сгруппировать_9" data-name="Сгруппировать 9" style="isolation: isolate">
            <g id="Сгруппировать_1" data-name="Сгруппировать 1" transform="translate(149.056 132.679)">
              <path id="Контур_1" data-name="Контур 1" d="M206.665,253.009l-47.212-1.288,22.476-.079,48.851,1.274Z" transform="translate(-159.453 -251.642)" fill="url(#linear-gradient)"/>
            </g>
            <g id="Сгруппировать_2" data-name="Сгруппировать 2" transform="translate(88.615 183.447)">
              <path id="Контур_2" data-name="Контур 2" d="M164.586,288.874V334.08l-42.691-9.32V283.189Z" transform="translate(-121.895 -283.189)" fill="url(#linear-gradient)"/>
            </g>
            <g id="Сгруппировать_3" data-name="Сгруппировать 3" transform="translate(88.62 89.433)">
              <path id="Контур_3" data-name="Контур 3" d="M164.595,269.634l-42.7-1.326V227.023l42.7-2.254Z" transform="translate(-121.898 -224.769)" fill="url(#linear-gradient-3)"/>
            </g>
            <g id="Сгруппировать_4" data-name="Сгруппировать 4" transform="translate(68.786 132.971)">
              <path id="Контур_4" data-name="Контур 4" d="M150.753,253.232l-41.181-1.339,19.835-.07,42.7,1.326Z" transform="translate(-109.573 -251.824)" fill="url(#linear-gradient)"/>
            </g>
            <g id="Сгруппировать_5" data-name="Сгруппировать 5" transform="translate(0 137.96)">
              <path id="Контур_5" data-name="Контур 5" d="M102.622,307.7l-35.792-5.948V254.924l35.792,1.8Z" transform="translate(-66.829 -254.924)" fill="url(#linear-gradient)"/>
            </g>
            <g id="Сгруппировать_6" data-name="Сгруппировать 6" transform="translate(0 0.009)">
              <path id="Контур_6" data-name="Контур 6" d="M102.622,308.949l-35.792-1.8,53.785-128.487,40.023-9.464Z" transform="translate(-66.829 -169.201)" fill="url(#linear-gradient)"/>
            </g>
            <g id="Сгруппировать_7" data-name="Сгруппировать 7" transform="translate(35.784)">
              <path id="Контур_7" data-name="Контур 7" d="M273.661,303.146v53.706l-24.106.41v44.5l-8.336.218-56.63,1.558V358.327l-42.691.711-52.831.9v-51L147.09,169.2l68.246,1.859L163.242,303.583l21.346-.082V258.623l47.474.328,17.492.109v44.167Z" transform="translate(-89.065 -169.195)" fill="url(#linear-gradient-7)"/>
            </g>
            <g id="Сгруппировать_8" data-name="Сгруппировать 8" transform="translate(35.784)">
              <path id="Контур_8" data-name="Контур 8" d="M273.661,303.146v53.706l-24.106.41v44.5l-8.336.218-56.63,1.558V358.327L89.065,359.94v-51L147.09,169.2l68.246,1.859L163.242,303.583l21.346-.082V258.623l47.474.328,17.492.109v44.167Z" transform="translate(-89.065 -169.195)" fill="none" stroke="#707070" stroke-linecap="round" stroke-linejoin="round" stroke-width="0.266"/>
            </g>
          </g>
        </g>
        <path id="Контур_9" data-name="Контур 9" d="M221.987,269.164V322.87l-24.107.41v44.495l-8.336.219c-22.684-61.413-15.988-114.681-9.155-143.024l17.491.109v44.166Z" transform="translate(-1.608 -133.97)" fill="url(#linear-gradient-8)" style="mix-blend-mode: multiply;isolation: isolate"/>
        <g id="Сгруппировать_15" data-name="Сгруппировать 15" transform="translate(193.95)">
          <g id="Сгруппировать_14" data-name="Сгруппировать 14" style="isolation: isolate">
            <path id="Контур_10" data-name="Контур 10" d="M279.973,328.873c-.256.039-.517.072-.779.1l-.153.014c-.266.026-.534.045-.806.056l-.08,0c-.3.013-.61.018-.924.016a15.747,15.747,0,0,1-5.135-.835l-.014-.006a12.508,12.508,0,0,1-2.2-1.03l-.021-.011a12.949,12.949,0,0,1-1.991-1.466l-.01-.008a15.026,15.026,0,0,1-1.632-1.757c-.113-.142-.222-.29-.333-.438a19.289,19.289,0,0,1-1.342-2.024c-.027-.047-.056-.089-.084-.135a26.82,26.82,0,0,1-1.236-2.556c-.09-.209-.179-.423-.266-.639-.377-.932-.734-1.912-1.064-2.976-.035-.114-.066-.24-.1-.356-.3-1.009-.584-2.084-.85-3.21-.056-.243-.116-.48-.172-.727q-.4-1.8-.74-3.795c-.085-.5-.161-1.046-.241-1.571-.155-1-.3-2.015-.439-3.085-.079-.626-.151-1.276-.224-1.926q-.176-1.591-.33-3.281c-.085-.953-.172-1.9-.248-2.9-.018-.238-.037-.471-.053-.713-.108-1.516-.2-3.095-.285-4.722q-.027-.543-.053-1.094-.077-1.673-.14-3.423c-.011-.3-.024-.6-.034-.906q-.072-2.175-.121-4.472c-.008-.375-.014-.763-.021-1.143q-.036-1.842-.056-3.759c0-.46-.01-.919-.014-1.387-.013-1.649-.023-3.325-.023-5.058,0-1.939.011-3.8.029-5.637q0-.649.013-1.292c.021-1.786.048-3.532.087-5.219,0-.209.013-.409.018-.616.037-1.527.084-3.006.137-4.451.013-.354.026-.71.039-1.059.063-1.556.134-3.069.217-4.528.016-.312.037-.611.056-.919q.089-1.489.193-2.911.041-.565.084-1.118c.043-.534.092-1.041.137-1.561q.191-2.182.422-4.2c.035-.3.066-.621.1-.917q.292-2.407.65-4.575c.019-.122.04-.245.061-.367.253-1.5.528-2.924.832-4.255l.016-.068q.466-2.037,1.014-3.817l.029-.092q.553-1.782,1.191-3.317l.008-.019a26.134,26.134,0,0,1,1.378-2.827l.031-.055a18.977,18.977,0,0,1,1.564-2.341l.023-.029a15.012,15.012,0,0,1,1.65-1.757c.109-.1.22-.188.33-.283a12.8,12.8,0,0,1,1.793-1.3c.016-.01.032-.014.047-.024a12.523,12.523,0,0,1,1.667-.768,13.254,13.254,0,0,1,1.823-.563c.291-.071.57-.164.872-.217a17.462,17.462,0,0,1,2.966-.283c.33,0,.653,0,.972.016s.632.035.941.066.613.069.912.117.592.1.882.167L256.3,201.124c-.314-.071-.634-.13-.959-.182s-.655-.095-.991-.127-.676-.056-1.022-.071-.7-.021-1.056-.018a19.614,19.614,0,0,0-2.625.211c-.159.023-.322.042-.48.069-.129.023-.262.032-.388.056a15.08,15.08,0,0,0-1.923.523c-.14.047-.277.1-.415.155-.261.1-.528.18-.78.293a13.351,13.351,0,0,0-1.35.694c-.018.01-.037.018-.055.029a13.616,13.616,0,0,0-1.357.914c-.2.155-.393.34-.591.509-.069.06-.15.1-.219.159-.048.043-.09.1-.138.15a15.415,15.415,0,0,0-1.476,1.522c-.108.129-.212.261-.317.393l-.026.032c-.021.027-.042.053-.063.079-.134.172-.266.348-.394.528s-.258.365-.385.554-.251.381-.373.578-.237.386-.354.584c-.043.076-.085.154-.129.23l-.035.063c-.06.1-.119.209-.179.317q-.169.309-.335.632t-.323.657q-.179.372-.349.755c-.1.235-.206.475-.307.719l-.01.023-.019.045c-.111.266-.219.539-.327.816s-.212.558-.315.846c-.124.348-.248.7-.367,1.067-.09.275-.179.558-.266.842-.006.019-.014.035-.019.055l-.023.076c-.014.048-.031.093-.045.142q-.171.57-.336,1.16c-.045.163-.087.333-.132.5-.031.114-.061.229-.092.344s-.066.24-.1.364c-.119.465-.232.948-.344,1.434-.023.093-.045.182-.066.277l-.011.043q-.2.9-.393,1.846c-.016.08-.031.166-.047.248-.042.211-.08.431-.122.647-.064.348-.134.687-.2,1.044-.034.195-.066.4-.1.6-.047.266-.09.536-.135.808-.034.212-.071.415-.1.631-.029.182-.051.383-.079.566q-.186,1.234-.354,2.538c-.027.2-.058.386-.084.592-.011.095-.021.2-.032.294-.142,1.152-.275,2.337-.4,3.566,0,.042-.01.08-.014.124-.016.169-.029.357-.045.529-.072.755-.145,1.51-.211,2.295-.024.3-.045.613-.069.914-.014.185-.032.352-.047.539-.016.219-.029.459-.045.681q-.111,1.55-.209,3.173c-.014.246-.034.473-.048.723,0,.09-.008.191-.013.282-.09,1.592-.167,3.239-.235,4.934-.006.15-.014.285-.021.434-.008.232-.013.484-.021.718-.06,1.593-.111,3.227-.151,4.911,0,.15-.01.286-.013.438,0,.048,0,.1,0,.153-.042,1.846-.072,3.762-.095,5.719,0,.212-.008.406-.011.618,0,.251,0,.525,0,.777-.019,2-.032,4.034-.032,6.149,0,1.894.011,3.725.026,5.528,0,.212,0,.439,0,.65,0,.285.008.549.011.832q.024,2.1.061,4.123c.006.288.008.6.013.88,0,.119.008.228.01.348q.053,2.508.132,4.886c0,.087,0,.18.006.267.008.241.021.463.029.7q.068,1.917.154,3.745c.011.235.018.489.029.723.008.164.021.311.029.473.09,1.772.191,3.489.307,5.138.006.1.011.2.018.3.013.169.029.32.042.489.048.652.093,1.315.146,1.949.08.969.169,1.909.259,2.832,0,.053.01.113.014.164l0,.045c.154,1.551.33,3.024.515,4.453.021.153.035.325.056.475.013.1.031.19.043.291q.278,2.042.6,3.917c.016.1.031.214.048.315.035.2.076.377.111.573q.179.978.372,1.912c.037.182.071.381.109.562.026.121.056.23.082.351.148.679.3,1.336.465,1.978.039.158.074.33.114.486.01.039.023.074.032.113.2.766.407,1.511.626,2.222.01.031.021.056.031.087.016.051.031.111.047.163q.386,1.238.809,2.362c.095.253.2.475.3.718s.192.468.29.7c.108.253.208.528.32.772q.473,1.036.99,1.963c.011.018.023.032.032.05.029.053.061.1.092.148.307.541.623,1.062.953,1.546.163.237.338.439.505.663.119.159.238.322.36.475.1.127.195.27.3.393q.239.282.484.549c.164.177.332.348.5.515s.323.311.489.46l.006.006,0,0,.013.013c.174.156.351.307.529.452q.179.145.362.285c.122.093.245.183.369.272s.249.174.377.256.253.166.381.245l.132.077.021.013c.056.034.111.068.167.1.108.061.216.122.325.18s.219.116.33.172.222.111.333.163.216.1.323.146.217.095.327.138.22.089.332.13c.087.034.174.064.261.095l.013,0,.063.022c.114.04.229.079.346.116s.232.074.349.108.237.068.356.1.238.063.359.092.257.06.388.089.262.055.394.079.266.048.4.071.269.042.4.061c.164.023.328.042.5.061s.333.034.5.048.34.026.51.035.344.018.518.024l.124,0,.124,0,.125,0,.126,0c.15,0,.3,0,.449,0s.3,0,.444-.01l.113-.006h.034l.047,0c.082,0,.164-.007.245-.011.145-.008.29-.018.433-.031.069,0,.137-.013.206-.019.026,0,.053,0,.08-.006s.052-.006.077-.01l.2-.019c.188-.022.373-.047.558-.074l.092-.016.047-.006c.026,0,.051-.01.079-.015.109-.018.22-.035.33-.055.18-.034.36-.071.538-.111l24.646-5.507c-.261.058-.526.108-.795.151Z" transform="translate(-160.69 -148.742)" fill="url(#linear-gradient-3)"/>
            <g id="Сгруппировать_11" data-name="Сгруппировать 11" transform="translate(130.784 7.044)" style="isolation: isolate">
              <path id="Контур_11" data-name="Контур 11" d="M302.2,234.563l17.446,1.044q.07,1.393.122,2.8c.034.941.064,1.888.087,2.84s.042,1.91.053,2.876.018,1.934.018,2.911q0,1.673-.022,3.322t-.069,3.275q-.046,1.627-.114,3.228t-.159,3.18l-17.454,1.186q.1-1.724.174-3.471t.124-3.521q.051-1.774.076-3.574t.024-3.626q0-1.6-.019-3.177t-.056-3.138q-.039-1.559-.095-3.1t-.134-3.058" transform="translate(-248.213 -135.17)" fill="url(#linear-gradient)"/>
              <path id="Контур_12" data-name="Контур 12" d="M302.913,251.581l17.454-1.186q-.14,2.4-.33,4.751t-.435,4.64q-.244,2.291-.539,4.525t-.642,4.414L300.8,271.583q.379-2.378.7-4.815t.587-4.94q.266-2.5.473-5.063t.359-5.183" transform="translate(-249.015 -125.524)" fill="url(#linear-gradient)"/>
              <path id="Контур_13" data-name="Контур 13" d="M340.336,284.667c0-3.919-.124-7.708-.311-11.431l.031,0q-.154-3.066-.393-6.04c-.031-.375-.074-.734-.106-1.106-.048-.571-.108-1.131-.161-1.7-.1-1.02-.18-2.053-.293-3.058-.151-1.352-.331-2.668-.51-3.989-.052-.386-.095-.784-.15-1.167-.024-.172-.042-.352-.066-.523q-.405-2.8-.892-5.5c-.079-.435-.177-.848-.259-1.279-.056-.3-.095-.613-.151-.908-.1-.489-.222-.941-.32-1.424-.187-.9-.351-1.831-.55-2.72-.195-.858-.423-1.677-.631-2.52-.185-.756-.367-1.516-.563-2.258-.111-.425-.206-.867-.32-1.287-.443-1.608-.927-3.164-1.418-4.712-.095-.3-.175-.608-.272-.9-.019-.061-.035-.124-.055-.183q-.932-2.831-1.975-5.528c-.08-.211-.18-.4-.262-.608-.6-1.522-1.258-2.976-1.913-4.432-.332-.737-.623-1.522-.969-2.242-.056-.117-.122-.222-.179-.34s-.113-.266-.175-.391c-.769-1.569-1.609-3.051-2.444-4.538-.27-.48-.507-1-.784-1.472-.021-.035-.045-.066-.066-.1q-1.837-3.116-3.877-5.98c-.026-.035-.048-.076-.072-.111-.325-.454-.69-.853-1.022-1.3-1.035-1.386-2.081-2.76-3.19-4.051-.08-.093-.15-.2-.23-.293q-1.144-1.316-2.337-2.565c-.422-.441-.861-.859-1.292-1.289-.116-.114-.219-.246-.336-.36-.079-.079-.169-.145-.249-.224-.188-.182-.368-.375-.558-.557q-1.243-1.18-2.538-2.293c-.365-.314-.745-.608-1.117-.914-.229-.188-.455-.377-.687-.562-.278-.225-.549-.462-.83-.681q-.893-.693-1.806-1.357t-1.847-1.3c-.092-.061-.185-.119-.277-.18-.069-.047-.142-.092-.211-.138-.465-.309-.93-.618-1.4-.916q-.958-.6-1.934-1.173-.843-.492-1.7-.962l-.285-.15-.174-.092c-.422-.227-.843-.455-1.271-.673q-.871-.447-1.761-.871t-1.793-.824l-.235-.1-.233-.1-.235-.1-.235-.1q-10.911-4.649-21.822-9.3,3.223,1.376,6.265,3.017c.066.035.13.068.195.1q2.981,1.615,5.782,3.482c.079.051.159.1.237.154,1.781,1.194,3.5,2.477,5.175,3.822.251.2.5.409.748.613q2.363,1.953,4.582,4.1c.216.209.426.425.639.637q2.173,2.163,4.2,4.519c1.207,1.408,2.346,2.908,3.473,4.419.389.521.809,1,1.188,1.532q2.221,3.121,4.223,6.524c.319.542.6,1.136.908,1.688.99,1.761,1.963,3.537,2.866,5.4.441.909.83,1.88,1.25,2.815.713,1.588,1.429,3.172,2.082,4.833.88,2.24,1.723,4.528,2.5,6.9.1.314.188.645.288.961q1.016,3.206,1.9,6.566c.214.809.412,1.637.613,2.459q.688,2.81,1.286,5.724c.172.843.351,1.682.512,2.538.491,2.6.943,5.251,1.328,7.972.058.417.1.848.161,1.268q.507,3.773.874,7.7c.06.616.124,1.225.177,1.846q.83,9.7.846,20.272a210.543,210.543,0,0,1-3.481,39.636q-.077.41-.158.816-.823,4.171-1.826,8.135c-.035.137-.068.277-.1.414q-1.043,4.051-2.279,7.876c-.063.195-.127.389-.19.584q-1.246,3.807-2.676,7.395c-.043.109-.089.216-.132.323q-1.482,3.674-3.157,7.115l-.006.013q-1.673,3.421-3.547,6.593c-.06.1-.117.2-.177.306q-1.827,3.085-3.838,5.935l-.348.486q-1.96,2.745-4.086,5.272c-.1.116-.193.235-.291.349-1.378,1.616-2.816,3.146-4.3,4.625-.314.314-.631.623-.948.93-1.49,1.437-3.019,2.823-4.609,4.123-.172.142-.352.27-.525.41q-2.259,1.813-4.652,3.436c-.306.209-.607.426-.917.631q-2.535,1.675-5.214,3.141c-.372.2-.748.4-1.123.6-1.862.982-3.754,1.917-5.716,2.752l21.823-9.3c1.8-.768,3.544-1.627,5.254-2.53.344-.18.692-.359,1.033-.547.283-.156.579-.3.861-.457,1.344-.761,2.647-1.579,3.931-2.427.285-.188.562-.388.845-.581.62-.423,1.249-.834,1.855-1.276.821-.6,1.617-1.236,2.412-1.873.163-.13.332-.249.492-.381,1.089-.891,2.16-1.812,3.2-2.773.352-.325.686-.676,1.032-1.009.15-.145.315-.269.465-.415s.269-.3.41-.441c1.255-1.252,2.485-2.539,3.659-3.9.1-.113.19-.232.286-.344s.177-.214.267-.32c.4-.476.806-.951,1.2-1.44q.862-1.074,1.69-2.189c.3-.4.581-.806.869-1.212.1-.146.211-.29.314-.436.148-.209.3-.41.446-.621q.8-1.156,1.564-2.351.666-1.04,1.31-2.115c.071-.117.138-.24.209-.359.056-.093.109-.19.166-.285.3-.507.6-1.014.888-1.53q.618-1.1,1.213-2.237t1.155-2.277l0-.006,0,0,0-.01q.565-1.154,1.106-2.337t1.057-2.395c.251-.587.492-1.186.735-1.785.039-.1.079-.193.119-.291.05-.127.1-.249.154-.378q.492-1.241.961-2.514.5-1.347.966-2.729c.129-.381.251-.774.377-1.16.06-.177.117-.356.175-.536.117-.367.241-.729.357-1.1q.442-1.414.855-2.861t.8-2.926c.029-.111.055-.225.084-.335s.06-.248.09-.37c.224-.877.446-1.756.653-2.65q.4-1.7.758-3.434c.093-.454.177-.919.269-1.376.024-.124.056-.24.082-.364s.039-.261.063-.385c.09-.465.187-.922.272-1.392q.326-1.779.615-3.6l-.056.008A198.709,198.709,0,0,0,340.336,284.667Z" transform="translate(-268.619 -172.8)" fill="url(#linear-gradient-12)"/>
            </g>
            <g id="Сгруппировать_12" data-name="Сгруппировать 12">
              <path id="Контур_14" data-name="Контур 14" d="M368.665,246.3c-.711-3.606-1.53-7.078-2.461-10.439-4.1-14.868-10.222-27.414-18.2-37.5a75.209,75.209,0,0,0-29.38-22.684c-11.534-5-24.817-7.462-39.685-7.243-14.977.246-28.206,3.088-39.6,8.391a76.128,76.128,0,0,0-28.642,23.122c-7.681,10.085-13.529,22.467-17.438,37.061s-5.9,31.4-5.9,50.317q0,28.409,5.9,50.344c3.909,14.594,9.757,27,17.438,37.06a76.132,76.132,0,0,0,28.642,23.124c11.4,5.3,24.627,8.145,39.6,8.391a106.4,106.4,0,0,0,18.994-1.313,85.612,85.612,0,0,0,20.69-5.93A75.213,75.213,0,0,0,348,376.317c7.98-10.084,14.1-22.63,18.2-37.5q6.192-22.343,6.233-51.492A205.974,205.974,0,0,0,368.665,246.3Zm-73.248,92.982c-1.64,5.3-3.745,9.073-6.477,11.506a14.145,14.145,0,0,1-10,3.5,14.948,14.948,0,0,1-10.195-3.663c-2.734-2.488-4.865-6.258-6.5-11.561a102.329,102.329,0,0,1-3.444-20.69c-.711-8.555-1.012-18.832-1.012-31.048,0-12.272.3-22.6,1.012-31.157s1.831-15.388,3.444-20.663c1.64-5.3,3.77-9.047,6.5-11.479a14.77,14.77,0,0,1,10.195-3.608,14.1,14.1,0,0,1,10,3.444c2.733,2.406,4.837,6.122,6.477,11.424,1.613,5.275,2.733,12.108,3.444,20.718s1.011,18.967,1.011,31.321c0,12.271-.3,22.6-1.011,31.212C298.15,327.121,297.03,333.982,295.417,339.284Z" transform="translate(-187.35 -168.423)" fill="url(#linear-gradient-7)"/>
            </g>
            <g id="Сгруппировать_13" data-name="Сгруппировать 13">
              <path id="Контур_15" data-name="Контур 15" d="M368.665,246.3c-.711-3.606-1.53-7.078-2.461-10.439-4.1-14.868-10.222-27.414-18.2-37.5a75.209,75.209,0,0,0-29.38-22.684c-11.534-5-24.817-7.462-39.685-7.243-14.977.246-28.206,3.088-39.6,8.391a76.128,76.128,0,0,0-28.642,23.122c-7.681,10.085-13.529,22.467-17.438,37.061s-5.9,31.4-5.9,50.317q0,28.409,5.9,50.344c3.909,14.594,9.757,27,17.438,37.06a76.132,76.132,0,0,0,28.642,23.124c11.4,5.3,24.627,8.145,39.6,8.391a106.4,106.4,0,0,0,18.994-1.313,85.612,85.612,0,0,0,20.69-5.93A75.213,75.213,0,0,0,348,376.317c7.98-10.084,14.1-22.63,18.2-37.5q6.192-22.343,6.233-51.492A205.974,205.974,0,0,0,368.665,246.3Zm-73.248,92.982c-1.64,5.3-3.745,9.073-6.477,11.506a14.145,14.145,0,0,1-10,3.5,14.948,14.948,0,0,1-10.195-3.663c-2.734-2.488-4.865-6.258-6.5-11.561a102.329,102.329,0,0,1-3.444-20.69c-.711-8.555-1.012-18.832-1.012-31.048,0-12.272.3-22.6,1.012-31.157s1.831-15.388,3.444-20.663c1.64-5.3,3.77-9.047,6.5-11.479a14.77,14.77,0,0,1,10.195-3.608,14.1,14.1,0,0,1,10,3.444c2.733,2.406,4.837,6.122,6.477,11.424,1.613,5.275,2.733,12.108,3.444,20.718s1.011,18.967,1.011,31.321c0,12.271-.3,22.6-1.011,31.212C298.15,327.121,297.03,333.982,295.417,339.284Z" transform="translate(-187.35 -168.423)" fill="none" stroke="#707070" stroke-linecap="round" stroke-linejoin="round" stroke-width="0.266"/>
            </g>
          </g>
        </g>
        <g id="Сгруппировать_25" data-name="Сгруппировать 25" transform="translate(362.529 6.956)">
          <g id="Сгруппировать_24" data-name="Сгруппировать 24" style="isolation: isolate">
            <g id="Сгруппировать_16" data-name="Сгруппировать 16" transform="translate(73.851 132.667)">
              <path id="Контур_17" data-name="Контур 17" d="M338,256.549l28.845-1.365,20.3.044L360.027,256.6Z" transform="translate(-337.996 -255.184)" fill="url(#linear-gradient-14)"/>
            </g>
            <g id="Сгруппировать_17" data-name="Сгруппировать 17" transform="translate(73.851 0.01)">
              <path id="Контур_18" data-name="Контур 18" d="M392.379,172.752l24.549,9.724L366.841,305.408,338,306.773Z" transform="translate(-337.996 -172.752)" fill="url(#linear-gradient-15)"/>
            </g>
            <g id="Сгруппировать_18" data-name="Сгруппировать 18" transform="translate(165.19 183.72)">
              <path id="Контур_19" data-name="Контур 19" d="M416.345,286.909v41.926l-21.592,9.839V292.949Z" transform="translate(-394.753 -286.909)" fill="url(#linear-gradient-16)"/>
            </g>
            <g id="Сгруппировать_19" data-name="Сгруппировать 19" transform="translate(165.194 88.85)">
              <path id="Контур_20" data-name="Контур 20" d="M394.756,227.956l21.592,2.379v41.622l-21.592,1.4Z" transform="translate(-394.756 -227.956)" fill="url(#radial-gradient)"/>
            </g>
            <g id="Сгруппировать_20" data-name="Сгруппировать 20" transform="translate(191.825 132.904)">
              <path id="Контур_21" data-name="Контур 21" d="M411.3,256.741l19.443-1.41v51.06L411.3,312.453Z" transform="translate(-411.305 -255.331)" fill="url(#radial-gradient-2)"/>
            </g>
            <g id="Сгруппировать_21" data-name="Сгруппировать 21" transform="translate(165.194 132.85)">
              <path id="Контур_22" data-name="Контур 22" d="M394.756,256.7l21.592-1.4,24.483.053-19.443,1.41Z" transform="translate(-394.756 -255.298)" fill="url(#radial-gradient-3)"/>
            </g>
            <g id="Сгруппировать_22" data-name="Сгруппировать 22">
              <path id="Контур_23" data-name="Контур 23" d="M483.942,307.051v55.728l-5.057-.055-21.592-.219v45.725l-69.312-1.175V361.8l-95.878-.984V311.533l57.423-137.585,70.815-1.2L365.953,306.777l22.029.055v-44.96l69.312-.273V307Z" transform="translate(-292.104 -172.745)" fill="url(#linear-gradient-7)"/>
            </g>
            <g id="Сгруппировать_23" data-name="Сгруппировать 23" transform="translate(0.008 0.01)">
              <path id="Контур_24" data-name="Контур 24" d="M420.336,172.752,365.953,306.773l22.031.053V261.872l69.311-.281v45.4l26.632.064v55.712l-26.632-.273v45.722l-69.311-1.161V361.782l-95.874-.984V311.517l57.405-137.58Z" transform="translate(-292.109 -172.752)" fill="none" stroke="#707070" stroke-linecap="round" stroke-linejoin="round" stroke-width="0.266"/>
            </g>
          </g>
        </g>
      </g>
    </g>
  </g>
</svg>
