<svg id="animals" xmlns="http://www.w3.org/2000/svg" width="17.531" height="16.821" viewBox="0 0 17.531 16.821">
  <ellipse id="Эллипс_10" data-name="Эллипс 10" cx="0.773" cy="0.773" rx="0.773" ry="0.773" transform="translate(7.992 8.356)" fill="#d3cb95"/>
  <path id="Контур_60" data-name="Контур 60" d="M17.453,16.689a1.491,1.491,0,0,0-1.518-1.04l-3.218.179a1.641,1.641,0,0,1-1.67-1.214L10.222,11.5a1.508,1.508,0,0,0-2.916,0l-.824,3.116a1.641,1.641,0,0,1-1.67,1.214l-3.218-.179a1.508,1.508,0,0,0-.9,2.774L3.4,20.169a1.64,1.64,0,0,1,.638,1.964L2.874,25.139a1.491,1.491,0,0,0,.52,1.765,1.491,1.491,0,0,0,1.839-.051l2.5-2.037a1.64,1.64,0,0,1,2.065,0l2.5,2.037a1.508,1.508,0,0,0,2.359-1.714l-1.165-3.005a1.64,1.64,0,0,1,.638-1.964l2.709-1.747a1.491,1.491,0,0,0,.617-1.734Zm-6.889,2.817a1.791,1.791,0,0,1-.371,1.093l1.834,2.524a.514.514,0,1,1-.831.6L9.363,21.2a1.8,1.8,0,0,1-1.2,0L6.332,23.727a.514.514,0,1,1-.831-.6L7.335,20.6a1.791,1.791,0,0,1-.371-1.093c0-.015,0-.03,0-.045L4,18.5a.514.514,0,1,1,.317-.977l2.967.964a1.807,1.807,0,0,1,.968-.7V14.661a.514.514,0,1,1,1.027,0V17.78a1.807,1.807,0,0,1,.968.7l2.967-.964a.514.514,0,1,1,.317.977l-2.967.964C10.564,19.476,10.565,19.491,10.565,19.506Z" transform="translate(0.001 -10.376)" fill="#d3cb95"/>
</svg>
