<svg id="facebook-2" xmlns="http://www.w3.org/2000/svg" width="20.904" height="20.904" viewBox="0 0 20.904 20.904">
  <g id="Сгруппировать_8" data-name="Сгруппировать 8">
    <path id="Контур_6" data-name="Контур 6" d="M18.454,0h-16A2.452,2.452,0,0,0,0,2.45v16A2.452,2.452,0,0,0,2.45,20.9h16a2.452,2.452,0,0,0,2.45-2.45v-16A2.452,2.452,0,0,0,18.454,0Zm.817,18.455a.817.817,0,0,1-.817.817H13.8V12.616h2.523l.417-2.531H13.8V8.329A1.2,1.2,0,0,1,15.025,7.1H16.7V4.573H15.025A3.756,3.756,0,0,0,11.27,8.336v1.749H8.819v2.531H11.27v6.655H2.45a.817.817,0,0,1-.817-.817v-16a.817.817,0,0,1,.817-.817h16a.817.817,0,0,1,.817.817Z" fill="#7b4b4b"/>
  </g>
</svg>
