<svg id="fb" xmlns="http://www.w3.org/2000/svg" width="34" height="34" viewBox="0 0 34 34">
  <path id="Контур_160" data-name="Контур 160" d="M29.75,0H4.25A4.253,4.253,0,0,0,0,4.25v25.5A4.254,4.254,0,0,0,4.25,34h25.5A4.255,4.255,0,0,0,34,29.75V4.25A4.254,4.254,0,0,0,29.75,0Z" fill="#3b5999"/>
  <path id="Контур_161" data-name="Контур 161" d="M19.625,15.125v-4.25c0-1.173.952-1.062,2.125-1.062h2.125V4.5h-4.25a6.374,6.374,0,0,0-6.375,6.375v4.25H9v5.313h4.25V32.125h6.375V20.438h3.188l2.125-5.312Z" transform="translate(3.75 1.875)" fill="#fff"/>
</svg>
