<svg id="hand-washing" xmlns="http://www.w3.org/2000/svg" width="17.549" height="17.851" viewBox="0 0 17.549 17.851">
  <ellipse id="Эллипс_11" data-name="Эллипс 11" cx="0.5" cy="1" rx="0.5" ry="1" transform="translate(3.327 4.775)" fill="#d3cb95"/>
  <circle id="Эллипс_12" data-name="Эллипс 12" cx="1" cy="1" r="1" transform="translate(0.327 2.775)" fill="#d3cb95"/>
  <path id="Контур_65" data-name="Контур 65" d="M22.605,6.841h1.21a.593.593,0,0,0,.211-.04l-.018.04-1.1,2.421,1.513.605V13.5h3.631V14.1a.605.605,0,1,0,1.21,0v.908a.605.605,0,1,0,1.21,0V9.867l1.513-.605-1.1-2.421-.018-.04a.593.593,0,0,0,.211.04h1.21a.6.6,0,0,0,.605-.605V4.723l-.605-.908V2H30.472V3.815l-.908.605v.605h.908v.908H28.959a1.513,1.513,0,1,1-3.026,0H24.42V5.026h.908V4.421l-.908-.605V2H22.605V3.815L22,4.723V6.236a.6.6,0,0,0,.605.605Z" transform="translate(-16.251 -2)" fill="#d3cb95"/>
  <path id="Контур_66" data-name="Контур 66" d="M52.5,33.935a1.942,1.942,0,0,0-1-2.2v3.408h2.874a1.21,1.21,0,0,0-1.21-1.21Z" transform="translate(-36.826 -22.74)" fill="#d3cb95"/>
  <path id="Контур_67" data-name="Контур 67" d="M14.346,32.306v-.151H11.169a.454.454,0,0,1-.454-.454V28.378l-.692-.277A2.573,2.573,0,0,0,8.01,29.732,2.112,2.112,0,0,0,5.142,31.4H4.21A1.21,1.21,0,0,0,3,32.609H14.4A1.044,1.044,0,0,1,14.346,32.306ZM6.631,31.7a.605.605,0,1,1,.605-.605A.6.6,0,0,1,6.631,31.7Zm2.118-1.513a.3.3,0,1,1,.3-.3A.3.3,0,0,1,8.749,30.188Z" transform="translate(-3 -20.204)" fill="#d3cb95"/>
  <path id="Контур_68" data-name="Контур 68" d="M20.7,45a1.059,1.059,0,0,1-2.109.139,1.079,1.079,0,0,1-.16.012A1.037,1.037,0,0,1,17.891,45H7.333l.638,3.83a1.21,1.21,0,0,0,1.194,1.011H20.427a1.211,1.211,0,0,0,1.194-1.011L22.26,45ZM14.04,49.236H9.8a.454.454,0,0,1,0-.908H14.04a.454.454,0,0,1,0,.908Zm1.513,0a.454.454,0,1,1,.454-.454A.454.454,0,0,1,15.553,49.236Z" transform="translate(-6.022 -31.99)" fill="#d3cb95"/>
</svg>
