<svg xmlns="http://www.w3.org/2000/svg" xmlns:xlink="http://www.w3.org/1999/xlink" width="34.993" height="35" viewBox="0 0 34.993 35">
  <defs>
    <linearGradient id="linear-gradient" x1="-1.539" y1="-3.018" x2="-1.1" y2="-3.49" gradientUnits="objectBoundingBox">
      <stop offset="0" stop-color="#f54655"/>
      <stop offset="0.5" stop-color="#ff543e"/>
      <stop offset="0.623" stop-color="#f9514a"/>
      <stop offset="1" stop-color="#c837ab"/>
    </linearGradient>
  </defs>
  <g id="in" transform="translate(0.07 0.038)">
    <path id="Контур_162" data-name="Контур 162" d="M2.213,2.392C-.529,5.24.032,8.265.032,17.456c0,7.633-1.332,15.284,5.638,17.086,2.176.56,21.46.56,23.634,0,2.9-.749,5.263-3.1,5.586-7.207.045-.573.045-19.169,0-19.754-.343-4.372-3.034-6.891-6.58-7.4a31.39,31.39,0,0,0-5.145-.16C8.373.025,5.13-.634,2.213,2.392Z" transform="translate(0 0)" fill="url(#linear-gradient)"/>
    <path id="Контур_163" data-name="Контур 163" d="M16.021,3.143c-5.279,0-10.292-.47-12.207,4.444-.791,2.03-.676,4.665-.676,8.44,0,3.312-.106,6.425.676,8.438,1.91,4.917,6.964,4.446,12.2,4.446,5.055,0,10.267.526,12.205-4.446.792-2.05.676-4.647.676-8.438,0-5.033.278-8.283-2.163-10.722-2.472-2.472-5.814-2.162-10.721-2.162ZM14.867,5.465c11.012-.017,12.413-1.242,11.64,15.764-.275,6.015-4.854,5.355-10.484,5.355-10.264,0-10.559-.294-10.559-10.562,0-10.388.814-10.551,9.4-10.559ZM22.9,7.6a1.545,1.545,0,1,0,1.545,1.545A1.546,1.546,0,0,0,22.9,7.6ZM16.021,9.41a6.616,6.616,0,1,0,6.614,6.617A6.616,6.616,0,0,0,16.021,9.41Zm0,2.322c5.677,0,5.685,8.589,0,8.589S10.337,11.732,16.021,11.732Z" transform="translate(1.454 1.438)" fill="#fff"/>
  </g>
</svg>
