<svg xmlns="http://www.w3.org/2000/svg" width="20.896" height="20.9" viewBox="0 0 20.896 20.9">
  <g id="instagram-sketched" transform="translate(0 0)">
    <path id="Контур_3" data-name="Контур 3" d="M21.292,6.145a7.637,7.637,0,0,0-.486-2.536A5.354,5.354,0,0,0,17.748.551,7.656,7.656,0,0,0,15.213.065C14.094.012,13.739,0,10.9,0S7.709.012,6.594.061A7.639,7.639,0,0,0,4.059.547,5.1,5.1,0,0,0,2.2,1.756,5.146,5.146,0,0,0,1,3.605,7.658,7.658,0,0,0,.515,6.141C.461,7.259.449,7.615.449,10.452S.461,13.645.51,14.76A7.637,7.637,0,0,0,1,17.3a5.353,5.353,0,0,0,3.058,3.058,7.658,7.658,0,0,0,2.535.486c1.114.049,1.47.061,4.307.061s3.193-.012,4.307-.061a7.635,7.635,0,0,0,2.535-.486A5.346,5.346,0,0,0,20.8,17.3a7.663,7.663,0,0,0,.486-2.536c.049-1.115.061-1.47.061-4.307S21.341,7.259,21.292,6.145ZM19.41,14.678a5.729,5.729,0,0,1-.359,1.939A3.467,3.467,0,0,1,17.066,18.6a5.749,5.749,0,0,1-1.939.359c-1.1.049-1.433.061-4.222.061s-3.123-.012-4.222-.061A5.726,5.726,0,0,1,4.744,18.6a3.216,3.216,0,0,1-1.2-.78,3.249,3.249,0,0,1-.78-1.2A5.75,5.75,0,0,1,2.4,14.682c-.049-1.1-.061-1.433-.061-4.222s.012-3.123.061-4.222A5.726,5.726,0,0,1,2.764,4.3a3.177,3.177,0,0,1,.784-1.2,3.244,3.244,0,0,1,1.2-.78A5.753,5.753,0,0,1,6.688,1.96c1.1-.049,1.433-.061,4.222-.061s3.123.012,4.222.061a5.728,5.728,0,0,1,1.939.359,3.214,3.214,0,0,1,1.2.78,3.249,3.249,0,0,1,.78,1.2,5.752,5.752,0,0,1,.359,1.939c.049,1.1.061,1.433.061,4.222S19.459,13.576,19.41,14.678Zm0,0" transform="translate(-0.449 0)" fill="#7b4b4b"/>
    <path id="Контур_4" data-name="Контур 4" d="M130.318,124.5a5.369,5.369,0,1,0,5.369,5.369A5.37,5.37,0,0,0,130.318,124.5Zm0,8.852a3.483,3.483,0,1,1,3.483-3.483A3.483,3.483,0,0,1,130.318,133.352Zm0,0" transform="translate(-119.866 -119.417)" fill="#7b4b4b"/>
    <path id="Контур_5" data-name="Контур 5" d="M364.956,89.855A1.253,1.253,0,1,1,363.7,88.6,1.254,1.254,0,0,1,364.956,89.855Zm0,0" transform="translate(-347.669 -84.984)" fill="#7b4b4b"/>
  </g>
</svg>
