<svg xmlns="http://www.w3.org/2000/svg" width="10.215" height="14.856" viewBox="0 0 10.215 14.856">
  <g id="location" transform="translate(-79.968 0)">
    <path id="Контур_15" data-name="Контур 15" d="M89.473,2.543A5.041,5.041,0,0,0,85.19,0c-.076,0-.153,0-.229,0a5.041,5.041,0,0,0-4.284,2.543,5.172,5.172,0,0,0-.067,5.11L84.294,14.4l.005.009a.9.9,0,0,0,1.553,0l.005-.009,3.684-6.743a5.172,5.172,0,0,0-.068-5.11Zm-4.4,4.188a2.089,2.089,0,1,1,2.089-2.089A2.091,2.091,0,0,1,85.075,6.731Z" transform="translate(0 0)" fill="#cec498"/>
  </g>
</svg>
