<svg xmlns="http://www.w3.org/2000/svg" width="11.451" height="11.475" viewBox="0 0 11.451 11.475">
  <g id="phone-2" transform="translate(-0.539)">
    <g id="Сгруппировать_40" data-name="Сгруппировать 40" transform="translate(0.539 0)">
      <path id="Контур_14" data-name="Контур 14" d="M11.69,8.422l-1.6-1.6a1.065,1.065,0,0,0-1.773.4,1.09,1.09,0,0,1-1.258.686A4.938,4.938,0,0,1,4.083,4.933,1.037,1.037,0,0,1,4.77,3.675,1.065,1.065,0,0,0,5.17,1.9L3.569.3A1.142,1.142,0,0,0,2.024.3L.938,1.387c-1.087,1.144.114,4.175,2.8,6.863s5.719,3.946,6.863,2.8L11.69,9.966A1.142,1.142,0,0,0,11.69,8.422Z" transform="translate(-0.539 0)" fill="#cec498"/>
    </g>
  </g>
</svg>
