<svg id="shoe" xmlns="http://www.w3.org/2000/svg" width="17.531" height="20.847" viewBox="0 0 17.531 20.847">
  <g id="Сгруппировать_87" data-name="Сгруппировать 87" transform="translate(9.546 0)">
    <path id="Контур_61" data-name="Контур 61" d="M282.14,127.536a6.634,6.634,0,0,0-2.127-1.29c-.345,0-.965.568-1.43,1.1a7.191,7.191,0,0,0-1.381,2.246.13.13,0,0,0,0,.07c.055.246.11.489.163.723.12.528.233,1.026.32,1.474a.13.13,0,0,0,.026.056c.283.354.624.705.953,1.044.787.811,1.53,1.577,1.15,2.052a.351.351,0,0,1-.289.142c-.355,0-.89-.393-1.506-1.106a.13.13,0,0,0-.228.08c-.031.765-.091,1.687-.154,2.664-.033.507-.067,1.031-.1,1.562a2.937,2.937,0,0,0,.595,2.4,3.339,3.339,0,0,0,2.5.965,3.153,3.153,0,0,0,2.176-.661,3.808,3.808,0,0,0,.931-2.234,23.582,23.582,0,0,0,.156-3.158c0-.426.007-.866.017-1.317a.13.13,0,0,0-.234-.081c-.443.593-.641.8-.871.829a.315.315,0,0,1-.232-.055.33.33,0,0,1-.123-.2c-.086-.374.412-1.175.794-1.744.271-.4.578-.874.81-1.311a.13.13,0,0,0,.013-.04c.044-.272.044-.272.3-1.864a.13.13,0,0,0-.014-.082A9.709,9.709,0,0,0,282.14,127.536Z" transform="translate(-276.606 -120.875)" fill="#d3cb95"/>
    <path id="Контур_62" data-name="Контур 62" d="M270.94,3.618A6,6,0,0,0,269.6,1.239,3.588,3.588,0,0,0,266.862,0a3.538,3.538,0,0,0-2.66,1.2,4.079,4.079,0,0,0-.71,1.608,10.793,10.793,0,0,0,.105,4.025.108.108,0,0,0,.206.025,7.012,7.012,0,0,1,2.623-3.113.108.108,0,0,0,.053-.106l-.107-.952a.2.2,0,0,1,.176-.22h.023a.2.2,0,0,1,.2.177l.106.946a.108.108,0,0,0,.068.089A9.307,9.307,0,0,1,271.116,7.1a.108.108,0,0,0,.2-.051A9.772,9.772,0,0,0,270.94,3.618Z" transform="translate(-263.349 0)" fill="#d3cb95"/>
  </g>
  <g id="Сгруппировать_88" data-name="Сгруппировать 88" transform="translate(0 0)">
    <path id="Контур_63" data-name="Контур 63" d="M46.377,127.536a6.634,6.634,0,0,1,2.127-1.29c.345,0,.965.568,1.43,1.1a7.192,7.192,0,0,1,1.381,2.246.129.129,0,0,1,0,.07c-.055.246-.11.489-.163.723-.12.528-.233,1.026-.32,1.474a.129.129,0,0,1-.026.056c-.283.354-.624.705-.953,1.044-.787.811-1.53,1.577-1.15,2.052a.351.351,0,0,0,.289.142c.355,0,.89-.393,1.506-1.106a.13.13,0,0,1,.228.08c.031.765.091,1.687.154,2.664.033.507.067,1.031.1,1.562a2.937,2.937,0,0,1-.595,2.4,3.339,3.339,0,0,1-2.5.965,3.153,3.153,0,0,1-2.176-.661,3.808,3.808,0,0,1-.931-2.234,23.6,23.6,0,0,1-.156-3.158c0-.426-.007-.866-.017-1.317a.13.13,0,0,1,.234-.081c.443.593.641.8.871.829a.315.315,0,0,0,.232-.055.331.331,0,0,0,.123-.2c.086-.374-.412-1.175-.794-1.744-.271-.4-.578-.874-.81-1.311a.129.129,0,0,1-.013-.04c-.044-.272-.044-.272-.3-1.864a.13.13,0,0,1,.014-.082A9.706,9.706,0,0,1,46.377,127.536Z" transform="translate(-43.927 -120.875)" fill="#d3cb95"/>
    <path id="Контур_64" data-name="Контур 64" d="M39.364,3.618A6,6,0,0,1,40.7,1.239,3.588,3.588,0,0,1,43.441,0,3.538,3.538,0,0,1,46.1,1.2a4.079,4.079,0,0,1,.71,1.608,10.794,10.794,0,0,1-.106,4.025.108.108,0,0,1-.206.025,7.011,7.011,0,0,0-2.623-3.113.108.108,0,0,1-.053-.106l.107-.952a.2.2,0,0,0-.176-.22h-.023a.2.2,0,0,0-.2.177l-.106.946a.108.108,0,0,1-.068.089A9.307,9.307,0,0,0,39.188,7.1a.108.108,0,0,1-.2-.051A9.77,9.77,0,0,1,39.364,3.618Z" transform="translate(-38.97 0)" fill="#d3cb95"/>
  </g>
</svg>
