<svg id="taxi" xmlns="http://www.w3.org/2000/svg" width="17.531" height="16.071" viewBox="0 0 17.531 16.071">
  <g id="Сгруппировать_84" data-name="Сгруппировать 84" transform="translate(0.027 6.829)">
    <g id="Сгруппировать_83" data-name="Сгруппировать 83">
      <path id="Контур_46" data-name="Контур 46" d="M.78,220.772v.342l.248-.342Z" transform="translate(-0.78 -220.772)" fill="#d3cb95"/>
    </g>
  </g>
  <g id="Сгруппировать_86" data-name="Сгруппировать 86" transform="translate(0 0)">
    <g id="Сгруппировать_85" data-name="Сгруппировать 85">
      <path id="Контур_47" data-name="Контур 47" d="M17.531,26.326h-1.6l-2.19-2.993H11.982V21.326H5.539v2.007H3.776L1.6,26.326H0v1.027H.858L.027,28.5v8.9H4.1v-2.05h9.348V37.4h4.073V28.5l-.837-1.144h.847ZM4.3,24.359h8.923L16,28.155H1.544ZM1.053,31.234V29.182H4.517l1.176,2.052ZM11.468,33.3H6.053V32.269h5.416Zm5.026-2.062H11.875l1.176-2.052h3.443Z" transform="translate(0 -21.326)" fill="#d3cb95"/>
    </g>
  </g>
</svg>
