<svg id="_2983227" data-name="2983227" xmlns="http://www.w3.org/2000/svg" width="24" height="24" viewBox="0 0 24 24">
  <path id="Контур_125" data-name="Контур 125" fill="#d3cb95"/>
  <path id="Контур_126" data-name="Контур 126" d="M288.148,9.915V8.71H286.89V7.3h1.258V2.346a.939.939,0,1,0-1.879,0V4.02h-1.406V2.346a2.346,2.346,0,1,1,4.691,0V9.915h.064a2.064,2.064,0,0,1,2.061,2.062v.789H280.845V9.915Z" transform="translate(-267.68 0)" fill="#d3cb95"/>
  <path id="Контур_127" data-name="Контур 127" d="M42.331,307.042H34.863v-4.7H30.6V304a6.465,6.465,0,0,0,3.444,5.711l-.453,1.05H32v1.406h2.521l.836-1.938a6.444,6.444,0,0,0,1.707.229h8.214a6.444,6.444,0,0,0,1.707-.229l.836,1.938h2.521v-1.406h-1.6l-.453-1.05A6.465,6.465,0,0,0,51.732,304v-1.661h-9.4Z" transform="translate(-29.167 -288.167)" fill="#d3cb95"/>
  <path id="Контур_128" data-name="Контур 128" d="M151.527,211.52h4.656v7.554h-4.656Z" transform="translate(-144.424 -201.605)" fill="#d3cb95"/>
  <path id="Контур_129" data-name="Контур 129" d="M2.061,211.52A2.064,2.064,0,0,0,0,213.581v.789H5.7V211.52Z" transform="translate(0 -201.605)" fill="#d3cb95"/>
  <path id="Контур_130" data-name="Контур 130" fill="#d3cb95"/>
</svg>
