<svg xmlns="http://www.w3.org/2000/svg" width="50" height="29.168" viewBox="0 0 50 29.168">
  <path id="vk" d="M41.491,21.726c-.808-1.021-.577-1.475,0-2.388.01-.01,6.684-9.232,7.371-12.359l0,0c.342-1.14,0-1.977-1.652-1.977H41.747A2.347,2.347,0,0,0,39.37,6.523S36.587,13.186,32.649,17.5c-1.271,1.248-1.858,1.648-2.552,1.648-.342,0-.873-.4-.873-1.54V6.977C29.224,5.61,28.834,5,27.682,5h-8.6a1.308,1.308,0,0,0-1.392,1.231c0,1.3,1.969,1.594,2.173,5.24v7.911c0,1.733-.315,2.052-1.013,2.052-1.858,0-6.369-6.69-9.042-14.346C9.273,5.6,8.746,5,7.344,5H1.875C.315,5,0,5.721,0,6.525c0,1.421,1.858,8.486,8.642,17.819,4.521,6.371,10.888,9.823,16.68,9.823,3.481,0,3.906-.767,3.906-2.085,0-6.088-.315-6.663,1.429-6.663.808,0,2.2.4,5.45,3.473,3.715,3.644,4.325,5.275,6.4,5.275h5.467c1.558,0,2.348-.767,1.894-2.279C48.833,28.707,41.808,22.163,41.491,21.726Z" transform="translate(0 -5)" fill="#4b729f"/>
</svg>
