<svg xmlns="http://www.w3.org/2000/svg" width="24.157" height="13.783" viewBox="0 0 24.157 13.783">
  <g id="vk" transform="translate(0 0)">
    <g id="Сгруппировать_7" data-name="Сгруппировать 7" transform="translate(0 0)">
      <path id="Контур_2" data-name="Контур 2" d="M23.941,122.218a10.771,10.771,0,0,0-2.4-2.775c-2.023-1.878-1.752-1.573.686-4.821,1.484-1.978,2.078-3.186,1.892-3.7-.177-.492-1.268-.362-1.268-.362l-3.63.021a.83.83,0,0,0-.47.083,1.022,1.022,0,0,0-.32.39,21.028,21.028,0,0,1-1.342,2.833c-1.617,2.747-2.265,2.892-2.529,2.721-.615-.4-.461-1.6-.461-2.449,0-2.662.4-3.772-.787-4.059a6.231,6.231,0,0,0-1.7-.169,7.842,7.842,0,0,0-3.014.308c-.414.2-.732.654-.538.679a1.628,1.628,0,0,1,1.072.539A3.5,3.5,0,0,1,9.5,113.1s.214,3.133-.5,3.523c-.491.267-1.163-.278-2.6-2.771a23.238,23.238,0,0,1-1.3-2.688,1.072,1.072,0,0,0-.3-.4,1.505,1.505,0,0,0-.559-.225l-3.452.021s-.518.015-.708.24c-.169.2-.014.615-.014.615s2.7,6.322,5.762,9.51a8.291,8.291,0,0,0,5.993,2.73h1.443a1.217,1.217,0,0,0,.658-.288,1.051,1.051,0,0,0,.2-.634s-.029-1.937.871-2.223,2.025,1.872,3.231,2.7a2.285,2.285,0,0,0,1.605.489l3.227-.045S24.742,123.546,23.941,122.218Z" transform="translate(0 -109.924)" fill="#7b4b4b"/>
    </g>
  </g>
</svg>
