<svg xmlns="http://www.w3.org/2000/svg" width="21.473" height="23" viewBox="0 0 21.473 23">
  <g id="_1" data-name="1" transform="translate(-16.996)">
    <path id="Контур_108" data-name="Контур 108" d="M37.654,370.529H31.741V369.1h5.443l-.862-2.625H32.215a27.074,27.074,0,0,0-3.393,3.657l-1.089,1.492-1.089-1.493a27.207,27.207,0,0,0-3.393-3.657H19.143l-.862,2.625h5.443v1.432H17.811L17,373.01H38.469l-.815-2.481Z" transform="translate(0 -350.01)" fill="#d3cb95"/>
    <path id="Контур_109" data-name="Контур 109" d="M88.6,19.326c3.249-4.453,7.873-6.171,7.873-11.452a7.873,7.873,0,0,0-15.747,0C80.73,13.154,85.356,14.874,88.6,19.326Zm0-13.3a2.147,2.147,0,1,1-2.147,2.147A2.151,2.151,0,0,1,88.6,6.022Z" transform="translate(-60.871)" fill="#d3cb95"/>
  </g>
</svg>
