<svg id="banquet" xmlns="http://www.w3.org/2000/svg" width="17.531" height="17.507" viewBox="0 0 17.531 17.507">
  <path id="Контур_41" data-name="Контур 41" d="M109.606,2.747l.982-1.026h0A.81.81,0,0,0,109.409.609a.81.81,0,0,0-1.179,1.112l.982,1.026a5.747,5.747,0,0,0-5,3.092h10.4a5.747,5.747,0,0,0-5.007-3.092Z" transform="translate(-100.65 -0.352)" fill="#d3cb95"/>
  <path id="Контур_42" data-name="Контур 42" d="M0,332.393a.976.976,0,0,0,1.953.027c0-.009,0-.018,0-.027V331.34a.582.582,0,0,1,.582-.582h0a.582.582,0,0,1,.582.582v1.052c0,.009,0,.018,0,.027a.976.976,0,0,0,1.952,0c0-.009,0-.018,0-.026V331.34a.582.582,0,0,1,.582-.582h0a.582.582,0,0,1,.582.582v1.052c0,.009,0,.018,0,.026a.976.976,0,0,0,1.952,0c0-.009,0-.018,0-.027V331.34a.582.582,0,0,1,.582-.582h0a.582.582,0,0,1,.582.582v1.052c0,.009,0,.018,0,.027a.976.976,0,0,0,1.952,0c0-.009,0-.018,0-.027V331.34a.582.582,0,0,1,.582-.582h0a.582.582,0,0,1,.582.582v1.052c0,.009,0,.018,0,.027a.976.976,0,0,0,1.952,0c0-.009,0-.018,0-.027V331.34a.582.582,0,0,1,.582-.582h0a.582.582,0,0,1,.582.582v1.052c0,.009,0,.018,0,.027a.976.976,0,0,0,1.953-.027V329.76H0Z" transform="translate(0 -318.488)" fill="#d3cb95"/>
  <path id="Контур_43" data-name="Контур 43" d="M228.516,449.491a2.142,2.142,0,0,1-.98.594v1.174a.37.37,0,0,0,.37.37h1.217a.37.37,0,0,0,.37-.37v-1.174A2.143,2.143,0,0,1,228.516,449.491Z" transform="translate(-219.75 -434.122)" fill="#d3cb95"/>
  <path id="Контур_44" data-name="Контур 44" d="M98.1,192.641H86.832a6.414,6.414,0,0,0-.165,1.2h11.6A6.412,6.412,0,0,0,98.1,192.641Z" transform="translate(-83.701 -186.061)" fill="#d3cb95"/>
  <path id="Контур_45" data-name="Контур 45" d="M16.976,261.76H.555a.555.555,0,0,0-.555.555v.608H17.531v-.608A.555.555,0,0,0,16.976,261.76Z" transform="translate(0 -252.815)" fill="#d3cb95"/>
</svg>
