<svg id="food-2" xmlns="http://www.w3.org/2000/svg" width="17.531" height="17.542" viewBox="0 0 17.531 17.542">
  <g id="Сгруппировать_78" data-name="Сгруппировать 78" transform="translate(0.976)">
    <g id="Сгруппировать_77" data-name="Сгруппировать 77">
      <path id="Контур_38" data-name="Контур 38" d="M44.74,14.915,37.862,8.036,29.825,0H29.2l-.128.326a5.762,5.762,0,0,0-.418,2.544,3.593,3.593,0,0,0,1.007,2.295l6.273,6.274.827-.827,5.8,6.485a1.542,1.542,0,0,0,2.181-2.181Z" transform="translate(-28.636)" fill="#d3cb95"/>
    </g>
  </g>
  <g id="Сгруппировать_80" data-name="Сгруппировать 80" transform="translate(0 9.985)">
    <g id="Сгруппировать_79" data-name="Сгруппировать 79">
      <path id="Контур_39" data-name="Контур 39" d="M5.517,291.442.6,296.355a1.542,1.542,0,0,0,2.181,2.181L7.7,293.623Z" transform="translate(-0.153 -291.442)" fill="#d3cb95"/>
    </g>
  </g>
  <g id="Сгруппировать_82" data-name="Сгруппировать 82" transform="translate(9.394 0.012)">
    <g id="Сгруппировать_81" data-name="Сгруппировать 81">
      <path id="Контур_40" data-name="Контур 40" d="M281.751,3.269l-2.787,2.787-.727-.727,2.787-2.787-.727-.727L277.51,4.6l-.727-.727,2.787-2.787-.727-.727L275.207,4a2.567,2.567,0,0,0-.748,1.663,1.481,1.481,0,0,1-.105.464l2.362,2.362a1.479,1.479,0,0,1,.464-.105,2.566,2.566,0,0,0,1.663-.748L282.478,4Z" transform="translate(-274.354 -0.361)" fill="#d3cb95"/>
    </g>
  </g>
</svg>
