<svg xmlns="http://www.w3.org/2000/svg" width="20.867" height="16" viewBox="0 0 20.867 16">
  <g id="_785982" data-name="785982" transform="translate(0 -59.713)">
    <g id="Сгруппировать_192" data-name="Сгруппировать 192" transform="translate(8.587 72.021)">
      <g id="Сгруппировать_191" data-name="Сгруппировать 191">
        <path id="Контур_131" data-name="Контур 131" d="M212.549,361.693a1.846,1.846,0,1,0,1.846,1.846A1.848,1.848,0,0,0,212.549,361.693Z" transform="translate(-210.703 -361.693)" fill="#d3cb95"/>
      </g>
    </g>
    <g id="Сгруппировать_194" data-name="Сгруппировать 194" transform="translate(5.817 67.918)">
      <g id="Сгруппировать_193" data-name="Сгруппировать 193" transform="translate(0 0)">
        <path id="Контур_132" data-name="Контур 132" d="M147.337,261.033a5.94,5.94,0,0,0-4.617,2.2l2.006,2.006a3.4,3.4,0,0,1,2.611-1.335,3.484,3.484,0,0,1,2.611,1.335l2.006-2.006A5.94,5.94,0,0,0,147.337,261.033Z" transform="translate(-142.72 -261.033)" fill="#d3cb95"/>
      </g>
    </g>
    <g id="Сгруппировать_196" data-name="Сгруппировать 196" transform="translate(0 59.713)">
      <g id="Сгруппировать_195" data-name="Сгруппировать 195" transform="translate(0 0)">
        <path id="Контур_133" data-name="Контур 133" d="M10.434,59.713A14.146,14.146,0,0,0,0,64.3L2.037,66.34a11.265,11.265,0,0,1,16.794,0L20.867,64.3A14.168,14.168,0,0,0,10.434,59.713Z" transform="translate(0 -59.713)" fill="#d3cb95"/>
      </g>
    </g>
    <g id="Сгруппировать_198" data-name="Сгруппировать 198" transform="translate(2.908 63.816)">
      <g id="Сгруппировать_197" data-name="Сгруппировать 197">
        <path id="Контур_134" data-name="Контур 134" d="M78.882,160.373a10.029,10.029,0,0,0-7.525,3.4l2.035,2.035a7.169,7.169,0,0,1,10.981,0l2.035-2.035A10.029,10.029,0,0,0,78.882,160.373Z" transform="translate(-71.357 -160.373)" fill="#d3cb95"/>
      </g>
    </g>
  </g>
</svg>
