<svg id="lecture" xmlns="http://www.w3.org/2000/svg" width="17.531" height="18.393" viewBox="0 0 17.531 18.393">
  <path id="Контур_48" data-name="Контур 48" d="M149.716,123.3a1.932,1.932,0,0,0-1.851-1.931,3.107,3.107,0,0,1-1.641.839v.524a.529.529,0,1,1-1.058,0V122.2a3.107,3.107,0,0,1-1.644-.84,1.932,1.932,0,0,0-1.851,1.931v.772h8.045Z" transform="translate(-136.93 -116.734)" fill="#d3cb95"/>
  <ellipse id="Эллипс_5" data-name="Эллипс 5" cx="2.054" cy="2.054" rx="2.054" ry="2.054" transform="translate(6.359 0.776) rotate(-10.894)" fill="#d3cb95"/>
  <path id="Контур_49" data-name="Контур 49" d="M76.811,125.859l.445-.445a.529.529,0,1,0-.748-.748l-.6.6a.529.529,0,0,0-.155.374V127.1h1.058v-1.244Z" transform="translate(-73.337 -119.769)" fill="#d3cb95"/>
  <path id="Контур_50" data-name="Контур 50" d="M41.283,230.149H55.39a.529.529,0,0,0,.529-.529v-1.094A.529.529,0,0,0,55.39,228H41.283a.529.529,0,0,0-.529.529v1.094A.529.529,0,0,0,41.283,230.149Z" transform="translate(-39.572 -219.605)" fill="#d3cb95"/>
  <path id="Контур_51" data-name="Контур 51" d="M190.593,457.391a2.357,2.357,0,0,1-1.728-.753,2.372,2.372,0,0,0-.653,1.635v.035a.265.265,0,0,0,.265.265h4.233a.264.264,0,0,0,.265-.265v-.036a2.372,2.372,0,0,0-.653-1.635A2.357,2.357,0,0,1,190.593,457.391Z" transform="translate(-181.829 -440.18)" fill="#d3cb95"/>
  <ellipse id="Эллипс_6" data-name="Эллипс 6" cx="1.305" cy="1.305" rx="1.305" ry="1.305" transform="translate(6.941 15.149) rotate(-54.196)" fill="#d3cb95"/>
  <path id="Контур_52" data-name="Контур 52" d="M9.635,457.391a2.357,2.357,0,0,1-1.728-.753,2.372,2.372,0,0,0-.653,1.635v.035a.265.265,0,0,0,.265.265h4.233a.265.265,0,0,0,.265-.265v-.035a2.372,2.372,0,0,0-.653-1.635A2.357,2.357,0,0,1,9.635,457.391Z" transform="translate(-7.254 -440.18)" fill="#d3cb95"/>
  <ellipse id="Эллипс_7" data-name="Эллипс 7" cx="1.305" cy="1.305" rx="1.305" ry="1.305" transform="translate(0.924 13.719) rotate(-7.004)" fill="#d3cb95"/>
  <path id="Контур_53" data-name="Контур 53" d="M373.363,456.638a2.358,2.358,0,0,1-3.456,0,2.372,2.372,0,0,0-.653,1.635v.035a.265.265,0,0,0,.265.265h4.233a.265.265,0,0,0,.265-.265v-.035A2.372,2.372,0,0,0,373.363,456.638Z" transform="translate(-356.485 -440.18)" fill="#d3cb95"/>
  <ellipse id="Эллипс_8" data-name="Эллипс 8" cx="1.305" cy="1.305" rx="1.305" ry="1.305" transform="translate(13.845 13.543)" fill="#d3cb95"/>
  <path id="Контур_54" data-name="Контур 54" d="M389.353,125.86V127.1h1.058v-1.463a.529.529,0,0,0-.155-.374l-.6-.6a.529.529,0,1,0-.748.748Z" transform="translate(-375.297 -119.77)" fill="#d3cb95"/>
  <path id="Контур_55" data-name="Контур 55" d="M85.16,322.245a2.366,2.366,0,0,1,2.36-2.363V319H74.754v.882a2.362,2.362,0,0,1,2.268,3.026,3.455,3.455,0,0,1,.923,1.3,3.454,3.454,0,0,1,.923-1.3,2.363,2.363,0,1,1,4.536,0,3.454,3.454,0,0,1,.925,1.305,3.454,3.454,0,0,1,.925-1.3A2.358,2.358,0,0,1,85.16,322.245Z" transform="translate(-72.373 -307.397)" fill="#d3cb95"/>
</svg>
