<svg id="_1586702" data-name="1586702" xmlns="http://www.w3.org/2000/svg" width="17.614" height="17.614" viewBox="0 0 17.614 17.614">
  <path id="Контур_140" data-name="Контур 140" d="M0,0V4.128H17.614V0ZM10.355,3.1h-3.1V2.064h3.1ZM9.323,5.16V9.289h8.291V5.16Zm4.128,3.1H12.419V7.225h1.032ZM9.323,10.321v5.16h8.291v-5.16Zm3.1,2.064h1.032v1.032H12.419ZM0,10.321v5.16H8.291v-5.16Zm5.195,3.1H4.163V12.385H5.195ZM0,5.16V9.289H8.291V5.16Zm5.195,3.1H4.163V7.225H5.195Z" fill="#d3cb95"/>
  <path id="Контур_141" data-name="Контур 141" d="M0,480v1.1H2.935l.516-1.1Z" transform="translate(0 -463.487)" fill="#d3cb95"/>
  <path id="Контур_142" data-name="Контур 142" d="M411.7,480l.516,1.1h2.935V480Z" transform="translate(-397.536 -463.487)" fill="#d3cb95"/>
</svg>
