<svg xmlns="http://www.w3.org/2000/svg" width="21" height="21.041" viewBox="0 0 21 21.041">
  <g id="_685974" data-name="685974" transform="translate(-0.5)">
    <g id="Сгруппировать_226" data-name="Сгруппировать 226" transform="translate(1.882 11.43)">
      <g id="Сгруппировать_225" data-name="Сгруппировать 225">
        <path id="Контур_156" data-name="Контур 156" d="M39.526,282.391a5.558,5.558,0,0,1-5.4-4.269l1.153,9.611h8.491l1.153-9.611A5.558,5.558,0,0,1,39.526,282.391Z" transform="translate(-34.127 -278.122)" fill="#d3cb95"/>
      </g>
    </g>
    <g id="Сгруппировать_228" data-name="Сгруппировать 228" transform="translate(6.664)">
      <g id="Сгруппировать_227" data-name="Сгруппировать 227">
        <rect id="Прямоугольник_79" data-name="Прямоугольник 79" width="1" height="8" transform="translate(-0.164)" fill="#d3cb95"/>
      </g>
    </g>
    <g id="Сгруппировать_230" data-name="Сгруппировать 230" transform="translate(12.87 19.808)">
      <g id="Сгруппировать_229" data-name="Сгруппировать 229">
        <rect id="Прямоугольник_80" data-name="Прямоугольник 80" width="2" height="1" transform="translate(-0.37 0.191)" fill="#d3cb95"/>
      </g>
    </g>
    <g id="Сгруппировать_232" data-name="Сгруппировать 232" transform="translate(12.961)">
      <g id="Сгруппировать_231" data-name="Сгруппировать 231">
        <path id="Контур_157" data-name="Контур 157" d="M311.348,17.169a3.119,3.119,0,0,0-2.167-.854h-.658V0h-1.233V16.315h-.575a3.119,3.119,0,0,0-2.167.854,2.93,2.93,0,0,0-.824,1.407h8.447A2.93,2.93,0,0,0,311.348,17.169Z" transform="translate(-303.725)" fill="#d3cb95"/>
      </g>
    </g>
    <g id="Сгруппировать_234" data-name="Сгруппировать 234" transform="translate(20.267 19.808)">
      <g id="Сгруппировать_233" data-name="Сгруппировать 233">
        <rect id="Прямоугольник_81" data-name="Прямоугольник 81" width="1" height="1" transform="translate(0.233 0.191)" fill="#d3cb95"/>
      </g>
    </g>
    <g id="Сгруппировать_236" data-name="Сгруппировать 236" transform="translate(15.336 19.808)">
      <g id="Сгруппировать_235" data-name="Сгруппировать 235">
        <rect id="Прямоугольник_82" data-name="Прямоугольник 82" width="1" height="1" transform="translate(0.164 0.191)" fill="#d3cb95"/>
      </g>
    </g>
    <g id="Сгруппировать_238" data-name="Сгруппировать 238" transform="translate(17.801 19.808)">
      <g id="Сгруппировать_237" data-name="Сгруппировать 237">
        <rect id="Прямоугольник_83" data-name="Прямоугольник 83" width="2" height="1" transform="translate(-0.302 0.191)" fill="#d3cb95"/>
      </g>
    </g>
    <g id="Сгруппировать_240" data-name="Сгруппировать 240" transform="translate(0.5 9.534)">
      <g id="Сгруппировать_239" data-name="Сгруппировать 239" transform="translate(0)">
        <path id="Контур_158" data-name="Контур 158" d="M.5,232v1.233H3.01a4.315,4.315,0,0,0,8.542,0h2.51V232Z" transform="translate(-0.5 -232)" fill="#d3cb95"/>
      </g>
    </g>
  </g>
</svg>
