<svg id="snorkeling" xmlns="http://www.w3.org/2000/svg" width="17.531" height="17.536" viewBox="0 0 17.531 17.536">
  <ellipse id="Эллипс_9" data-name="Эллипс 9" cx="1.397" cy="1.398" rx="1.397" ry="1.398" transform="translate(1.473 12.083)" fill="#d3cb95"/>
  <path id="Контур_56" data-name="Контур 56" d="M438.13,0a1.286,1.286,0,0,0-1.286,1.286V2.358h2.571V1.286A1.286,1.286,0,0,0,438.13,0Z" transform="translate(-421.884)" fill="#d3cb95"/>
  <path id="Контур_57" data-name="Контур 57" d="M6.763,86.652v-.018H7.791v.018A3.347,3.347,0,0,0,11.134,90h0a3.343,3.343,0,0,0,0-6.687H3.42a3.343,3.343,0,1,0,3.343,3.343Z" transform="translate(-0.077 -80.456)" fill="#d3cb95"/>
  <path id="Контур_58" data-name="Контур 58" d="M183.657,99.7a4.365,4.365,0,0,1,0,3.934v4.23a2.571,2.571,0,0,1-2.571,2.571H179.8a2.571,2.571,0,0,1-2.529-2.11h-2.593a5.143,5.143,0,0,0,5.122,4.681h1.286a5.143,5.143,0,0,0,5.143-5.143V98.857h-2.571Z" transform="translate(-168.698 -95.471)" fill="#d3cb95"/>
  <path id="Контур_59" data-name="Контур 59" d="M127.847,243.154a4.385,4.385,0,0,1-3.032-2.237,4.385,4.385,0,0,1-3.032,2.237,1.8,1.8,0,0,0,1.445,1.339H126.4A1.8,1.8,0,0,0,127.847,243.154Z" transform="translate(-117.615 -232.665)" fill="#d3cb95"/>
</svg>
