<svg id="spa" xmlns="http://www.w3.org/2000/svg" width="17.794" height="17.864" viewBox="0 0 17.794 17.864">
  <path id="Контур_69" data-name="Контур 69" d="M175.774,0h-6.018l3.009,7.523Z" transform="translate(-163.868)" fill="#d3cb95"/>
  <path id="Контур_70" data-name="Контур 70" d="M5.375,11.838H9.123L5.81,3.553a1.574,1.574,0,0,0-.5.337L1.151,8.085a.523.523,0,0,0-.109.575l1.675,3.908a.524.524,0,0,0,.808.2l1.881-1.5Z" transform="translate(-1 -3.429)" fill="#d3cb95"/>
  <path id="Контур_71" data-name="Контур 71" d="M286.128,8.082l-4.161-4.2a1.568,1.568,0,0,0-.5-.336l-3.314,8.285H281.9l-.03-.572,1.88,1.5a.524.524,0,0,0,.808-.2l1.675-3.908a.523.523,0,0,0-.109-.575Z" transform="translate(-268.486 -3.426)" fill="#d3cb95"/>
  <path id="Контур_72" data-name="Контур 72" d="M275.053,271H271v8.409h2.839a1.571,1.571,0,0,0,1.568-1.652Z" transform="translate(-261.58 -261.545)" fill="#d3cb95"/>
  <path id="Контур_73" data-name="Контур 73" d="M119.029,271h-4.053l-.354,6.756a1.571,1.571,0,0,0,1.568,1.653h2.839Z" transform="translate(-110.656 -261.545)" fill="#d3cb95"/>
</svg>
