<svg xmlns="http://www.w3.org/2000/svg" width="23" height="23" viewBox="0 0 23 23">
  <g id="_2" data-name="2" transform="translate(0)">
    <path id="Контур_110" data-name="Контур 110" d="M20.979,18.867H18.867V16.785a2.011,2.011,0,0,0-1.838-2.014,13.3,13.3,0,0,1-3.637-.875l-1.177.95A14.246,14.246,0,0,1,4.994,7.124l.989-1.231a12.876,12.876,0,0,1-.593-3.871A2.024,2.024,0,0,0,3.369,0H.118C.054.843,0,1.427,0,2.021A18.2,18.2,0,0,0,17.52,20.181l3.459.034a.674.674,0,0,1,.674.674V23H23V20.889A2.024,2.024,0,0,0,20.979,18.867Z" transform="translate(0 0)" fill="#d3cb95"/>
    <path id="Контур_111" data-name="Контур 111" d="M185.01,10.02A5.01,5.01,0,1,0,180,5.01,5.015,5.015,0,0,0,185.01,10.02Zm-.557-7.793h1.113V4.453h1.113V5.566h-2.227Z" transform="translate(-169.32)" fill="#d3cb95"/>
  </g>
</svg>
