<svg xmlns="http://www.w3.org/2000/svg" width="19.553" height="20" viewBox="0 0 19.553 20">
  <g id="_991459" data-name="991459" transform="translate(-5.717)">
    <g id="Сгруппировать_200" data-name="Сгруппировать 200" transform="translate(16.642)">
      <g id="Сгруппировать_199" data-name="Сгруппировать 199">
        <path id="Контур_143" data-name="Контур 143" d="M289.083.6l-3.678,5.673,2.966-.6L292.049,0Z" transform="translate(-285.405)" fill="#d3cb95"/>
      </g>
    </g>
    <g id="Сгруппировать_202" data-name="Сгруппировать 202" transform="translate(12.048 0.934)">
      <g id="Сгруппировать_201" data-name="Сгруппировать 201">
        <path id="Контур_144" data-name="Контур 144" d="M171.476,24.523,167.8,30.2l2.967-.6,3.678-5.673Z" transform="translate(-167.798 -23.919)" fill="#d3cb95"/>
      </g>
    </g>
    <g id="Сгруппировать_204" data-name="Сгруппировать 204" transform="translate(7.455 1.869)">
      <g id="Сгруппировать_203" data-name="Сгруппировать 203">
        <path id="Контур_145" data-name="Контур 145" d="M53.878,48.447,50.2,54.12l2.966-.6,3.678-5.673Z" transform="translate(-50.2 -47.844)" fill="#d3cb95"/>
      </g>
    </g>
    <g id="Сгруппировать_206" data-name="Сгруппировать 206" transform="translate(5.717 2.803)">
      <g id="Сгруппировать_205" data-name="Сгруппировать 205">
        <path id="Контур_146" data-name="Контур 146" d="M5.717,72.539l.767,3.914,3.021-4.685Z" transform="translate(-5.717 -71.768)" fill="#d3cb95"/>
      </g>
    </g>
    <g id="Сгруппировать_208" data-name="Сгруппировать 208" transform="translate(21.235 0.657)">
      <g id="Сгруппировать_207" data-name="Сгруппировать 207">
        <path id="Контур_147" data-name="Контур 147" d="M406.008,16.811,402.986,21.5l3.79-.771Z" transform="translate(-402.986 -16.811)" fill="#d3cb95"/>
      </g>
    </g>
    <g id="Сгруппировать_210" data-name="Сгруппировать 210" transform="translate(13.208 8.203)">
      <g id="Сгруппировать_209" data-name="Сгруппировать 209">
        <path id="Контур_148" data-name="Контур 148" d="M201.009,210l-3.516,3.516h3.03L204.039,210Z" transform="translate(-197.493 -210)" fill="#d3cb95"/>
      </g>
    </g>
    <g id="Сгруппировать_212" data-name="Сгруппировать 212" transform="translate(17.896 8.203)">
      <g id="Сгруппировать_211" data-name="Сгруппировать 211">
        <path id="Контур_149" data-name="Контур 149" d="M321.01,210l-3.516,3.516h3.03L324.04,210Z" transform="translate(-317.494 -210)" fill="#d3cb95"/>
      </g>
    </g>
    <g id="Сгруппировать_214" data-name="Сгруппировать 214" transform="translate(6.52 8.884)">
      <g id="Сгруппировать_213" data-name="Сгруппировать 213">
        <path id="Контур_150" data-name="Контур 150" d="M26.283,228.088v2.188h.343l2.834-2.834Z" transform="translate(-26.283 -227.442)" fill="#d3cb95"/>
      </g>
    </g>
    <g id="Сгруппировать_216" data-name="Сгруппировать 216" transform="translate(22.583 9.032)">
      <g id="Сгруппировать_215" data-name="Сгруппировать 215">
        <path id="Контур_151" data-name="Контур 151" d="M437.494,233.9h2.687v-2.687Z" transform="translate(-437.494 -231.211)" fill="#d3cb95"/>
      </g>
    </g>
    <g id="Сгруппировать_218" data-name="Сгруппировать 218" transform="translate(8.521 8.203)">
      <g id="Сгруппировать_217" data-name="Сгруппировать 217">
        <path id="Контур_152" data-name="Контур 152" d="M82.02,210l-1.269.258-3.258,3.258h3.03L84.04,210Z" transform="translate(-77.494 -210)" fill="#d3cb95"/>
      </g>
    </g>
    <g id="Сгруппировать_220" data-name="Сгруппировать 220" transform="translate(6.52 12.891)">
      <g id="Сгруппировать_219" data-name="Сгруппировать 219">
        <path id="Контур_153" data-name="Контур 153" d="M26.283,330v7.109h18.75V330Zm10.547,5.313h-8.2v-1.172h8.2Zm0-2.344h-8.2V331.8h8.2Z" transform="translate(-26.283 -330)" fill="#d3cb95"/>
      </g>
    </g>
  </g>
</svg>
